<?xml version="1.0" encoding="UTF-8" standalone="no"?>
<svg
   id="svg5563"
   viewBox="0 0 328.41705 382.33183"
   version="1.1"
   sodipodi:docname="Happy Jack-o'-Lantern.svg"
   width="328.41705"
   height="382.33182"
   inkscape:version="1.2.2 (b0a8486541, 2022-12-01)"
   xmlns:inkscape="http://www.inkscape.org/namespaces/inkscape"
   xmlns:sodipodi="http://sodipodi.sourceforge.net/DTD/sodipodi-0.dtd"
   xmlns="http://www.w3.org/2000/svg"
   xmlns:svg="http://www.w3.org/2000/svg"
   xmlns:rdf="http://www.w3.org/1999/02/22-rdf-syntax-ns#"
   xmlns:cc="http://creativecommons.org/ns#"
   xmlns:dc="http://purl.org/dc/elements/1.1/">
  <title
     id="title69619">Happy Jack-o'-Lantern</title>
  <defs
     id="defs69270" />
  <sodipodi:namedview
     id="namedview69268"
     pagecolor="#ffffff"
     bordercolor="#000000"
     borderopacity="0.25"
     inkscape:showpageshadow="2"
     inkscape:pageopacity="0.0"
     inkscape:pagecheckerboard="0"
     inkscape:deskcolor="#d1d1d1"
     showgrid="false"
     inkscape:zoom="0.84557963"
     inkscape:cx="132.45352"
     inkscape:cy="214.05435"
     inkscape:window-width="960"
     inkscape:window-height="1023"
     inkscape:window-x="0"
     inkscape:window-y="29"
     inkscape:window-maximized="0"
     inkscape:current-layer="g69617" />
  <path
     id="path5371"
     stroke-width="11.4556"
     fill="#f4c441"
     d="M 318.34775,186.89237 C 338.61556,267.42833 286.03512,350.0838 200.90683,371.50732 115.77854,392.93084 30.33711,345.01017 10.069305,264.47421 -10.198503,183.93824 42.381933,101.28276 127.51022,79.859246 212.63851,58.435726 298.07995,106.3564 318.34775,186.89237 Z"
     style="stroke:#000000;stroke-linecap:round;stroke-linejoin:round" />
  <g
     id="g5417"
     fill="#f4c441"
     transform="matrix(1.3132762,-0.33050114,0.33146644,1.3171119,203.20603,-810.23924)"
     style="stroke:#000000;stroke-linecap:round;stroke-linejoin:round">
    <path
       id="path5382"
       stroke-width="3.1111"
       transform="matrix(1.2357,0,0,1.5725,55.994,153.84)"
       d="m -150,368.09 c 0,38.108 -30.892,69 -69,69 -38.108,0 -69,-30.892 -69,-69 0,-38.108 30.892,-69 69,-69 38.108,0 69,30.892 69,69 z" />
    <path
       id="path5382-2"
       stroke-width="4.9268"
       transform="matrix(0.49273,0,0,1.5725,-106.72,153.84)"
       d="m -150,368.09 c 0,38.108 -30.892,69 -69,69 -38.108,0 -69,-30.892 -69,-69 0,-38.108 30.892,-69 69,-69 38.108,0 69,30.892 69,69 z" />
  </g>
  <path
     id="path5371-6"
     stroke-width="11.4556"
     fill="#658e29"
     d="m 127.47338,78.408345 c -21.15161,5.323049 -39.810885,15.200548 -55.02889,28.164865 -1.979916,8.53913 -3.965818,15.9641 -1.858202,16.40006 11.308492,2.34179 22.242881,-13.75492 30.039142,-12.14069 7.02611,1.45498 18.38402,10.62521 27.51007,2.97978 3.35918,-2.81382 4.98156,-16.638484 11.9397,-15.198334 10.28594,2.130084 14.66973,10.529164 21.92452,12.031074 0.89923,0.18622 10.5441,-11.564275 13.20149,-13.225315 8.78507,-5.491182 22.03763,4.767475 28.50356,-5.657456 2.42425,-3.908618 2.51967,-7.232838 1.38631,-10.117154 C 181.4196,73.276367 154.4755,71.613369 127.47454,78.408473 Z"
     style="stroke:#000000;stroke-linecap:round;stroke-linejoin:round" />
  <path
     id="path5446"
     stroke-width="11.4556"
     fill="#658e29"
     d="m 118.10381,91.28428 c -0.96014,-7.945023 -1.92035,-15.890308 -2.88029,-23.83482 -2.22297,-18.393927 8.19486,-37.985907 18.84396,-51.592804 3.97725,-5.081643 32.32134,-13.781535 27.94787,-8.192948 -13.72,17.529517 -21.1256,54.734176 -11.58512,79.73736"
     style="stroke:#000000;stroke-linecap:round;stroke-linejoin:round" />
  <metadata
     id="metadata69265">
    <rdf:RDF>
      <cc:Work>
        <dc:format>image/svg+xml</dc:format>
        <dc:type
           rdf:resource="http://purl.org/dc/dcmitype/StillImage" />
        <cc:license
           rdf:resource="http://creativecommons.org/publicdomain/zero/1.0/" />
        <dc:publisher>
          <cc:Agent
             rdf:about="http://openclipart.org/">
            <dc:title>Openclipart</dc:title>
          </cc:Agent>
        </dc:publisher>
        <dc:title>Happy Jack-o'-Lantern</dc:title>
        <dc:date>2024-10-18T00:13:50</dc:date>
        <dc:description>Happy Jack-o'-Lantern</dc:description>
        <dc:source>https://openclipart.org/detail/184651/pumpkin-by-libberry-184651 and https://openclipart.org/detail/349830/smiling-earth</dc:source>
        <dc:creator>
          <cc:Agent>
            <dc:title>libberry and Benjamin Adams</dc:title>
          </cc:Agent>
        </dc:creator>
        <dc:subject>
          <rdf:Bag>
            <rdf:li>halloween</rdf:li>
            <rdf:li>jack-o'-lantern</rdf:li>
            <rdf:li>pumpkin</rdf:li>
          </rdf:Bag>
        </dc:subject>
      </cc:Work>
      <cc:License
         rdf:about="http://creativecommons.org/publicdomain/zero/1.0/">
        <cc:permits
           rdf:resource="http://creativecommons.org/ns#Reproduction" />
        <cc:permits
           rdf:resource="http://creativecommons.org/ns#Distribution" />
        <cc:permits
           rdf:resource="http://creativecommons.org/ns#DerivativeWorks" />
      </cc:License>
    </rdf:RDF>
  </metadata>
  <g
     id="g69617"
     transform="translate(94.020873,72.37046)">
    <ellipse
       style="display:inline;fill:#ffffff;fill-opacity:1;stroke:#000000;stroke-width:7.00267;stroke-linecap:round;stroke-dasharray:none;stroke-opacity:1;paint-order:stroke fill markers"
       id="path5"
       cx="75.196854"
       cy="136.23827"
       rx="37.507675"
       ry="45.221539"
       transform="matrix(1,0,0.062096,0.99807018,0,0)" />
    <ellipse
       style="fill:#ffffff;fill-opacity:1;stroke:#000000;stroke-width:7.05022;stroke-linecap:round;stroke-dasharray:none;stroke-opacity:1;paint-order:stroke fill markers"
       id="ellipse5"
       cx="134.06865"
       cy="105.77292"
       rx="33.517235"
       ry="40.961292"
       transform="matrix(1,0,0.17455363,0.98464767,0,0)" />
    <ellipse
       style="fill:#000000;fill-opacity:1;stroke:none;stroke-width:8.71631;stroke-linecap:round;stroke-dasharray:none;stroke-opacity:1;paint-order:stroke fill markers"
       id="path6"
       cx="43.185299"
       cy="149.77469"
       rx="6.3741207"
       ry="9.1040001"
       transform="rotate(-17.273652)" />
    <ellipse
       style="fill:#000000;fill-opacity:1;stroke:none;stroke-width:8.72134;stroke-linecap:round;stroke-dasharray:none;stroke-opacity:1;paint-order:stroke fill markers"
       id="ellipse6"
       cx="99.823837"
       cy="143.91153"
       rx="6.2664795"
       ry="9.2710838"
       transform="matrix(0.95329641,-0.30203634,0.34747763,0.93768827,0,0)" />
    <path
       style="display:inline;fill:#000000;fill-opacity:1;stroke:none;stroke-width:6.99591;stroke-linecap:round;stroke-dasharray:none;stroke-opacity:1;paint-order:stroke fill markers"
       d="m 72.656702,190.22532 c 0,0 29.249998,2.125 54.124998,-5.62499 24.875,-7.75 45.75001,-23.625 45.75001,-23.625 0,0 4.15873,2.38586 -4.81251,8.28125 0,0 1.12501,54.15628 -52.75,64.03128 -51.124998,8.12496 -42.312498,-43.06254 -42.312498,-43.06254 z"
       id="path7"
       sodipodi:nodetypes="cscccc" />
    <path
       style="display:inline;fill:#550000;fill-opacity:1;stroke:none;stroke-width:6.99591;stroke-linecap:round;stroke-dasharray:none;stroke-opacity:1;paint-order:stroke fill markers"
       d="m 76.656702,194.72534 c 0,0 19.42049,2.38129 44.670458,-4.6187 25.25,-7.00002 42.7474,-19.05679 42.7474,-19.05679 0,0 -0.27212,46.90912 -45.16785,57.30047 -48.843138,11.30499 -42.250008,-33.62498 -42.250008,-33.62498 z"
       id="path8"
       sodipodi:nodetypes="cscsc" />
    <path
       style="display:inline;fill:#ffaaaa;fill-opacity:1;stroke:none;stroke-width:6.99591;stroke-linecap:round;stroke-dasharray:none;stroke-opacity:1;paint-order:stroke fill markers"
       d="m 76.656702,194.72534 c 0,0 13.94861,1.71035 33.572898,-2.02889 7.67595,-1.35311 19.37352,4.25118 19.37352,4.25118 0,0 5.18199,2.70013 20.90997,12.0014 -6.69132,8.45914 -16.68393,15.94741 -31.60638,19.40129 -48.843128,11.30502 -42.250008,-33.62498 -42.250008,-33.62498 z"
       id="path10"
       sodipodi:nodetypes="csccsc" />
  </g>
</svg>
